# xmcd
#
# Track frame offsets: 
#        150
#        93606
#        130442
#        144242
#        170242
#        184216
#        201444
#        248381
#        281201
#        304626
#
# Disc length: 4432 seconds
#
# Revision: 0
# Processed by: cddbd v1.5.1PL0 Copyright (c) Steve Scherf et al.
# Submitted via: ExactAudioCopy v0.95a5
#
DISCID=97114e0a
DTITLE=Grateful Dead - gd_74-02-22 - 2
DYEAR=1974
DGENRE=Rock and Roll
TTITLE0=Playin' In The Band
TTITLE1=Tennessee Jed
TTITLE2=Me And My Uncle
TTITLE3=Ship Of Fools
TTITLE4=The Race Is On
TTITLE5=China Cat Sunflower ->
TTITLE6=I Know You Rider
TTITLE7=Truckin' ->
TTITLE8=Nobody's Fault But Mine -> Jam ->
TTITLE9=Goin' Down The Road Feeling Bad
EXTD=
EXTT0=
EXTT1=
EXTT2=
EXTT3=
EXTT4=
EXTT5=
EXTT6=
EXTT7=
EXTT8=
EXTT9=
PLAYORDER=
